<svg width="37" height="47" viewBox="0 0 37 47" fill="none" xmlns="http://www.w3.org/2000/svg">
<g clip-path="url(#clip0_14_719)">
<path d="M16.4545 39.4545C25.4919 39.4545 32.8182 32.1283 32.8182 23.0909C32.8182 14.0535 25.4919 6.72728 16.4545 6.72728C7.41716 6.72728 0.0909061 14.0535 0.0909061 23.0909C0.0909061 32.1283 7.41716 39.4545 16.4545 39.4545Z" fill="#FB651E"/>
<path d="M12.6369 0.386368H17.9177V23.7159L29.0743 9.65776H34.871L24.2305 23.0691L35.546 40.2751H29.9081L21.0543 26.8208L17.9177 30.7449V46.2046H12.9151L12.6369 0.386368Z" fill="white"/>
<path d="M12.6369 0.386368H17.9177V23.7159L29.0743 9.65776H34.871L24.2305 23.0691L35.546 40.2751H29.9081L21.0543 26.8208L17.9177 30.7449V46.2046H12.9151L12.6369 0.386368Z" fill="white"/>
</g>
<defs>
<clipPath id="clip0_14_719">
<rect width="36" height="46.6364" fill="white" transform="translate(0.0909081 0.181824)"/>
</clipPath>
</defs>
</svg>
